# xmcd
#
# Track frame offsets:
#	150
#	11951
#	24558
#	37071
#	47951
#	58146
#	71798
#	82073
#	96003
#	107613
#	119856
#	132331
#	145936
#	157088
#	166693
#	179318
#	191913
#	203933
#	213203
#	227391
#	239323
#	255205
#	263788
#	279661
#	294598
#
# Disc length: 4096 seconds
#
# Revision: 2
# Processed by: cddbd v1.4PL0 Copyright (c) Steve Scherf et al.
# Submitted via: MusicWizard 6.0.0
#
DISCID=7c0ffe19
DTITLE=Various Artist - 100 Country Greats CD 3/4
DYEAR=1999
DGENRE=Country
TTITLE0=Don Gibson - Oh, Lonesome Me
TTITLE1=Kenny Rogers - Reuben James
TTITLE2=George Morgan - In The Misty Moonlight
TTITLE3=Eddy Raven - I Got Mexico
TTITLE4=Roger Miller - Engine, Engine Number 9
TTITLE5=The Kendalls - Heartaches By The Number
TTITLE6=Conway Twitty - (I Can't Believe) She Gives It All To Me
TTITLE7=Lee Greenwood - Dixie Road
TTITLE8=Patsy Cline - Crazy Dreams
TTITLE9=Merle Haggard - The Bottle Let Me Down
TTITLE10=Wynn Stewart and Jerry Fuller - Wishful Thinking
TTITLE11=Eddy Raven - Right Hand Man
TTITLE12=George Morgan - Send Me The Pillow You Dream On
TTITLE13=Don Gibson - Take These Chains From My Mheart
TTITLE14=Bobby Bare - Four Strong Winds
TTITLE15=George Jones - Don't Be Angry
TTITLE16=Roy Rogers - Dust
TTITLE17=Faron Young - Live Fast, Live Hard, Die Young
TTITLE18=Holly Dunn - Love Someone Like Me
TTITLE19=Mickey Gilley - Welcome To My World
TTITLE20=Bill Anderson - Mama Sang A Song
TTITLE21=Jim Reeves - Waiting For A Train (Live)
TTITLE22=Don Williams - I've Been Loved By The Best (Live)
TTITLE23=Ed Bruce - You're The Best Break (This Old Heart Ever Had)
TTITLE24=Johnny Lee - Bet Your Heart On Me
EXTD=(C)1999 Castle Music Ltd England\nupc Pbx Cd 442/3 Year: 1999
EXTT0=
EXTT1=
EXTT2=
EXTT3=
EXTT4=
EXTT5=
EXTT6=
EXTT7=
EXTT8=
EXTT9=
EXTT10=
EXTT11=
EXTT12=
EXTT13=
EXTT14=
EXTT15=
EXTT16=
EXTT17=
EXTT18=
EXTT19=
EXTT20=
EXTT21=
EXTT22=
EXTT23=
EXTT24=
PLAYORDER=
